<?xml version="1.0" encoding="utf-8"?>
<!-- Generator: Adobe Illustrator 25.4.1, SVG Export Plug-In . SVG Version: 6.00 Build 0)  -->
<svg version="1.1" id="Layer_1" xmlns="http://www.w3.org/2000/svg" xmlns:xlink="http://www.w3.org/1999/xlink" x="0px" y="0px"
	 viewBox="0 0 134 59" style="enable-background:new 0 0 134 59;" xml:space="preserve">
<style type="text/css">
	.st0{fill:#FCFCFC;}
</style>
<path class="st0" d="M39.9,15.1c0,5.8-2.5,10.1-7.5,13.1c2.7,1,5.1,2.8,6.8,5.2C41,35.8,42,39.3,42,43.7s-1.6,8-4.9,10.6
	c-3.3,2.6-8,3.9-14.2,3.9H3.2c-0.9,0-1.7-0.3-2.3-1c-0.6-0.7-1-1.6-0.9-2.5v-53C-0.1,1.2,0,0.8,0.3,0.4C0.6,0.2,1,0.1,1.4,0.1h19
	C33.4,0.2,39.9,5.2,39.9,15.1z M15.9,13.6v10.9h0.4c5.3,0,8-1.8,8-5.3c0-1.9-0.5-3.4-1.5-4.2s-2.7-1.3-5.1-1.3
	C17.7,13.6,15.9,13.6,15.9,13.6z M15.9,34.2V45h1.5c2.4,0,4.1-0.5,5.3-1.3c1.1-0.9,1.6-2.3,1.6-4.2s-0.5-3.3-1.5-4.1
	c-1-0.8-2.7-1.2-5.1-1.2L15.9,34.2z"/>
<path class="st0" d="M49.7,53.3V1.7c0-1.2,2.8-1.7,8.5-1.7s8.5,0.6,8.5,1.7v40.6h12.8c1,0,1.7,1.3,2.1,3.9c0.2,1.3,0.3,2.6,0.3,3.9
	c0,1.4-0.1,2.7-0.3,4.1c-0.5,2.7-1.2,4-2.2,4H53.7c-1.2,0.1-2.3-0.6-2.9-1.5C50,55.7,49.7,54.5,49.7,53.3z"/>
<g>
	<path class="st0" d="M125,0.2c-6,0-9,0.5-9,1.6L116,39.3c0.1,1.2-0.6,2.2-1.6,2.8c-1.1,0.6-2.3,0.9-3.6,0.9c-1.3,0-2.6-0.4-3.8-1
		c-1.2-0.7-1.8-1.5-1.8-2.7V1.9c0-1.1-3-1.7-9-1.7s-9,0.6-9,1.7v36.7c0,6.3,2.2,11.2,6.7,14.9c4.4,3.7,10.3,5.5,17.4,5.5
		s12.7-1.8,16.8-5.4c4.1-3.6,6.1-8.2,6.1-13.8v-38C134.1,0.7,131.1,0.2,125,0.2z M121.4,10.6v1.7c0,0.1-0.3,0.1-0.8,0.1
		s-0.8,0-0.8-0.1V7.4h-0.4c-0.2,0-0.3-0.2-0.3-0.4c0-0.1-0.1-0.2-0.1-0.4c0-0.2,0.1-0.3,0.1-0.5c0.1-0.3,0.3-0.4,0.6-0.4
		c0.2,0,0.4,0.1,0.5,0.1c0.2,0.1,0.3,0.2,0.3,0.3c0.1,0.1,0.1,0.1,0.1,0.1c0.4-0.3,0.9-0.5,1.3-0.5c0.5,0,0.9,0.2,1.2,0.6
		c0.4,0.4,0.5,1,0.5,1.7c0,0.8-0.2,1.4-0.5,1.8c-0.4,0.4-0.8,0.7-1.3,0.7C121.9,10.6,121.6,10.6,121.4,10.6z M125.9,13.7
		c-0.1,0.1-0.1,0.2-0.2,0.2h-1.1V15c0,0.1-0.1,0.2-0.2,0.2c-0.1,0-0.1,0.1-0.2,0.1l-0.2-0.1c-0.1-0.1-0.2-0.1-0.2-0.2v-1.1h-1.1
		c-0.1,0-0.2-0.1-0.2-0.2c0-0.1,0-0.1,0-0.2c0-0.1,0-0.1,0-0.2c0.1-0.1,0.1-0.2,0.2-0.2h1.1v-1c0-0.1,0.1-0.2,0.2-0.2
		c0.1,0,0.1-0.1,0.2-0.1l0.2,0.1c0.1,0.1,0.2,0.1,0.2,0.2v1.1h1.1c0.1,0,0.2,0.1,0.2,0.2c0,0.1,0,0.1,0,0.2
		C125.9,13.6,125.9,13.6,125.9,13.7z M128.2,15.7c0,0.1-0.3,0.1-0.7,0.1s-0.7,0-0.7-0.1v-0.1l1.1-3.2h-1.3c-0.2,0-0.2-0.2-0.2-0.6
		c0-0.2,0-0.3,0.1-0.4c0.1-0.1,0.1-0.2,0.2-0.2h2.3c0.2,0,0.3,0.1,0.4,0.3c0.1,0.1,0.1,0.2,0.1,0.3L128.2,15.7z M129.6,10.4
		c0,0.1-0.3,0.2-0.9,0.2c-0.6,0-0.9-0.1-0.9-0.2V8.3h-1.3v2.1c0,0.1-0.3,0.2-0.9,0.2s-0.9-0.1-0.9-0.2V4.3c0-0.2,0.3-0.2,0.9-0.2
		s0.9,0.1,0.9,0.2v2.1h1.3V4.3c0-0.1,0.2-0.2,0.5-0.2c0.2,0,0.3,0,0.5,0h0.5c0.3,0.1,0.5,0.1,0.5,0.2L129.6,10.4L129.6,10.4z"/>
	<path class="st0" d="M121.8,7.4c-0.1,0-0.2,0.1-0.3,0.1v1.6c0.1,0,0.2,0,0.3,0c0.1,0,0.1,0,0.2,0c0.3,0,0.4-0.4,0.4-1
		C122.3,7.7,122.1,7.4,121.8,7.4z"/>
</g>
</svg>
